<svg width="34" height="27" viewBox="0 0 34 27" fill="none" xmlns="http://www.w3.org/2000/svg">
<path d="M20.2501 8.78445H24.991C24.991 8.78445 24.991 11.0533 24.8555 12.7721C24.7366 14.2813 20.2501 17.8598 20.2501 17.8598V8.78445Z" fill="#4D7CB0"/>
<path d="M0.0677262 15.2385L20.2501 15.2863V17.8599C20.2501 17.8599 19.1665 19.1467 17.812 19.4854C16.9305 19.7057 3.92812 19.6407 3.92812 19.6407L0.0677262 15.6927C0.0677262 15.6927 0 15.625 0 15.4895C0 15.3541 0.0677262 15.2385 0.0677262 15.2385Z" fill="#4D7CB0"/>
<path d="M20.1823 4.33448C20.1823 1.94385 22.0584 -0.0109703 24.449 4.63367e-05L33.2287 0.0405054C34.1338 0.135452 33.7305 0.36274 33.3211 0.677261L29.3253 4.31455L20.1823 4.33448Z" fill="#4D7CB0"/>
<path d="M29.3931 4.07954L33.3212 0.291421C33.3212 0.291421 33.9984 -0.226131 33.9984 0.623752V13.4097H29.3931V4.07954Z" fill="#579EBA"/>
<path d="M33.9984 13.4097C34.0492 15.6955 33.092 17.4058 32.5443 18.0943L32.4408 18.2183L27.5648 23.2974C26.707 24.4262 24.2459 26.6573 21.266 26.8199V22.4849C21.7627 22.4172 23.2167 22.0517 24.517 20.3179L28.1742 16.6607C29.2577 15.848 29.3929 14.1095 29.3929 13.4097H33.9984Z" fill="url(#paint0_linear_29_113)"/>
<path d="M12.8002 21.537C13.0485 21.8305 13.735 22.4311 14.4935 22.4853H21.266V26.8193H14.4935C13.4551 26.8644 10.9583 26.5755 9.27869 25.0585L3.9281 19.6406H10.9037L12.8002 21.537Z" fill="#4F81B2"/>
<path d="M24.9906 8.80458H14.5326C14.0082 8.8339 12.9023 9.26195 11.7845 10.6337L7.21033 15.327L0.098999 15.2597L8.33044 7.17958L8.51013 6.99501C9.50574 6.02727 11.903 4.38565 14.6967 4.33485H20.182V4.19911H29.3929L24.9906 8.80458Z" fill="url(#paint1_linear_29_113)"/>
<defs>
<linearGradient id="paint0_linear_29_113" x1="31.6203" y1="15.7761" x2="21.9223" y2="24.7909" gradientUnits="userSpaceOnUse">
<stop stop-color="#579EBA"/>
<stop offset="1" stop-color="#4F81B2"/>
</linearGradient>
<linearGradient id="paint1_linear_29_113" x1="3.45418" y1="15.3063" x2="20.1825" y2="6.36663" gradientUnits="userSpaceOnUse">
<stop stop-color="#4F80B2"/>
<stop offset="1" stop-color="#579EBA"/>
</linearGradient>
</defs>
</svg>
