<svg width="20" height="16" viewBox="0 0 20 16" fill="none" xmlns="http://www.w3.org/2000/svg">
<path d="M5.91923 2.66111C5.91923 2.92582 5.97166 3.15443 6.10273 3.38304C7.72794 6.1264 9.37937 8.86976 11.0439 11.6251C11.1225 11.7455 11.0701 11.8899 10.9391 11.9621C10.8997 11.9861 10.8473 11.9981 10.808 11.9981L6.77116 11.95C6.71874 11.95 6.66631 11.926 6.6401 11.8778L2.19696 4.50204C2.18386 4.47798 2.18386 4.44188 2.19696 4.41782L4.87071 0.146362C4.93624 0.0501034 5.01488 0.00197427 5.13284 0.0140065C5.91923 0.0380711 6.67942 -0.0100579 7.4527 0.00197434C9.77257 0.0260389 12.0793 0.0741679 14.3861 0.134329C14.4909 0.134329 14.5958 0.194491 14.6482 0.278717L19.17 7.66653C19.2224 7.75076 19.2224 7.83498 19.1569 7.91921L18.1477 9.36308C18.1346 9.38715 18.0953 9.38715 18.0821 9.37511L18.069 9.36308L13.4424 2.31217C13.4031 2.23998 13.3245 2.20388 13.2458 2.20388C11.0177 2.16778 8.8289 2.11965 6.6532 2.07152C6.29932 2.07152 5.93234 2.33623 5.91923 2.66111Z" fill="url(#paint0_linear_29_72)"/>
<path d="M5.99626 13.2352C8.11953 13.2232 10.2952 13.2352 12.5233 13.2593C12.7855 13.2593 12.969 13.2112 13.1131 13.1149C13.467 12.8502 13.4539 12.417 13.2442 12.0801C12.3005 10.4919 11.3962 9.01191 10.518 7.64023C9.90202 6.68968 9.35155 5.70303 8.74864 4.76451C8.56515 4.46371 8.25059 4.06664 8.08021 3.65754C8.04089 3.54925 8.09332 3.4169 8.22438 3.3808C8.25059 3.36877 8.27681 3.36877 8.31613 3.36877C9.66611 3.40487 10.9768 3.4169 12.2481 3.3808C12.353 3.3808 12.4578 3.42893 12.5102 3.51316C12.8903 4.09071 13.2442 4.63216 13.5719 5.16158C14.6859 6.91829 15.8524 8.78329 17.0844 10.7566C17.0975 10.7806 17.0975 10.8167 17.0844 10.8408L14.4238 15.2446C14.3976 15.2807 14.3583 15.3048 14.3189 15.3048C11.501 15.2928 8.67 15.2928 5.82588 15.3048C5.56374 15.3048 5.2754 15.3168 4.97395 15.3288C4.8822 15.3288 4.79046 15.2928 4.73803 15.2085L0.0196599 7.79665C-0.00655329 7.74852 -0.00655329 7.70039 0.0196599 7.66429L1.05508 6.16026C1.08129 6.11213 1.12061 6.11213 1.14683 6.16026L5.90452 13.1871C5.93073 13.2112 5.95694 13.2352 5.99626 13.2352Z" fill="url(#paint1_linear_29_72)"/>
<defs>
<linearGradient id="paint0_linear_29_72" x1="8.34813" y1="5.9994" x2="25.3092" y2="5.9994" gradientUnits="userSpaceOnUse">
<stop offset="0.0396273" stop-color="#4D7CB0"/>
<stop offset="0.1289" stop-color="#5189B4"/>
<stop offset="0.2705" stop-color="#5599B8"/>
<stop offset="0.3846" stop-color="#579EBA"/>
</linearGradient>
<linearGradient id="paint1_linear_29_72" x1="-0.226102" y1="9.32302" x2="16.877" y2="9.32302" gradientUnits="userSpaceOnUse">
<stop offset="0.3125" stop-color="#579EBA"/>
<stop offset="0.5109" stop-color="#5188B4"/>
<stop offset="0.6638" stop-color="#4D7CB0"/>
</linearGradient>
</defs>
</svg>
