<svg width="35" height="28" viewBox="0 0 35 28" fill="none" xmlns="http://www.w3.org/2000/svg">
<path d="M20.8008 9.02344H25.6706C25.6706 9.02344 25.6706 11.354 25.5314 13.1195C25.4092 14.6698 20.8008 18.3456 20.8008 18.3456V9.02344Z" fill="#4D7CB0"/>
<path d="M0.0695682 15.6528L20.8009 15.702V18.3455C20.8009 18.3455 19.6878 19.6673 18.2964 20.0152C17.3909 20.2416 4.03496 20.1748 4.03496 20.1748L0.0695682 16.1194C0.0695682 16.1194 0 16.0498 0 15.9107C0 15.7715 0.0695682 15.6528 0.0695682 15.6528Z" fill="#4D7CB0"/>
<path d="M20.7314 4.45236C20.7314 1.99672 22.6587 -0.0112686 25.1143 4.7597e-05L34.1327 0.0416071C35.0625 0.139136 34.6482 0.372606 34.2277 0.695681L30.1232 4.43189L20.7314 4.45236Z" fill="#4D7CB0"/>
<path d="M30.1924 4.19062L34.2273 0.299469C34.2273 0.299469 34.923 -0.232158 34.923 0.640839V13.7745H30.1924V4.19062Z" fill="#579EBA"/>
<path d="M33.3232 18.7139L28.3145 23.9316C27.4331 25.0912 24.9056 27.3819 21.8447 27.5488V23.0967C22.3549 23.0271 23.8489 22.6511 25.1846 20.8701L28.9404 17.1133L33.3232 18.7139ZM34.9238 13.7744C34.9795 16.2789 33.8566 18.1109 33.3232 18.7139L28.9414 17.1133C30.054 16.2783 30.1934 14.4932 30.1934 13.7744H34.9238Z" fill="url(#paint0_linear_1_19602)"/>
<path d="M13.1475 22.1221C13.4025 22.4235 14.1085 23.041 14.8877 23.0967H21.8447V27.5488H14.8877C13.8544 27.5938 11.4153 27.3167 9.69531 25.8828L9.53125 25.7402L4.03516 20.1748H11.2002L13.1475 22.1221Z" fill="#4F81B2"/>
<path d="M25.6709 9.04395H14.9268C14.3879 9.07439 13.2529 9.51394 12.1055 10.9219L7.40625 15.7432L0.101562 15.6738L8.55664 7.37402L8.74219 7.18555C9.76482 6.19151 12.2271 4.50438 15.0967 4.45215H20.7314V4.31348H30.1924L25.6709 9.04395Z" fill="url(#paint1_linear_1_19602)"/>
<defs>
<linearGradient id="paint0_linear_1_19602" x1="32.4808" y1="16.2051" x2="22.5192" y2="25.4652" gradientUnits="userSpaceOnUse">
<stop stop-color="#579EBA"/>
<stop offset="1" stop-color="#4F81B2"/>
</linearGradient>
<linearGradient id="paint1_linear_1_19602" x1="3.54801" y1="15.7216" x2="20.7306" y2="6.53831" gradientUnits="userSpaceOnUse">
<stop stop-color="#4F80B2"/>
<stop offset="1" stop-color="#579EBA"/>
</linearGradient>
</defs>
</svg>
