<svg width="19" height="15" viewBox="0 0 19 15" fill="none" xmlns="http://www.w3.org/2000/svg">
<path d="M10.8379 4.70166H13.3753C13.3753 4.70166 13.3753 5.916 13.3028 6.83595C13.2391 7.64373 10.8379 9.55901 10.8379 9.55901V4.70166Z" fill="white"/>
<path d="M0.0362483 8.15625L10.8382 8.18184V9.5593C10.8382 9.5593 10.2583 10.248 9.5333 10.4293C9.0615 10.5472 2.1024 10.5124 2.1024 10.5124L0.0362483 8.39934C0.0362483 8.39934 0 8.36309 0 8.29059C0 8.21809 0.0362483 8.15625 0.0362483 8.15625Z" fill="white"/>
<path d="M10.8027 2.31993C10.8027 1.0404 11.8069 -0.00587158 13.0864 2.48007e-05L17.7854 0.0216796C18.2699 0.0724975 18.054 0.194148 17.8349 0.362489L15.6963 2.30926L10.8027 2.31993Z" fill="white"/>
<path d="M15.7324 2.1833L17.8348 0.155796C17.8348 0.155796 18.1973 -0.121212 18.1973 0.333668V7.17705H15.7324V2.1833Z" fill="white"/>
<path d="M14.7529 12.4692C14.2938 13.0734 12.9766 14.2679 11.3818 14.355V12.0347C11.6479 11.9983 12.4254 11.8021 13.1211 10.8745L14.7529 12.4692ZM18.1963 7.17725C18.2253 8.48125 17.6414 9.43562 17.3633 9.75049L14.7529 12.4692L13.1221 10.8745L15.0791 8.91748L15.1816 8.83057C15.6677 8.36861 15.7314 7.52846 15.7314 7.17725H18.1963Z" fill="url(#paint0_linear_435_16977)"/>
<path d="M6.85156 11.5269L6.99121 11.6685C7.16951 11.8265 7.45234 12.0127 7.75684 12.0347H11.3818V14.355H7.75684C7.20072 14.379 5.86451 14.2234 4.96582 13.4116V13.4126L2.10254 10.5122H5.83594L6.85156 11.5269Z" fill="white"/>
<path d="M7.8291 4.7124C7.57532 4.70038 6.94447 4.90821 6.30664 5.69092L3.8584 8.20361L0.0527344 8.16748L4.45801 3.84229C4.91728 3.34685 6.27059 2.34891 7.86523 2.31982L7.8291 4.7124ZM13.375 4.7124H7.83008L7.86621 2.31982H10.8018V2.24756H15.7314L13.375 4.7124Z" fill="url(#paint1_linear_435_16977)"/>
<defs>
<linearGradient id="paint0_linear_435_16977" x1="16.9235" y1="8.44383" x2="11.7327" y2="13.2686" gradientUnits="userSpaceOnUse">
<stop offset="1" stop-color="white"/>
</linearGradient>
<linearGradient id="paint1_linear_435_16977" x1="1.84849" y1="8.19239" x2="10.8018" y2="3.40775" gradientUnits="userSpaceOnUse">
<stop offset="1" stop-color="white"/>
</linearGradient>
</defs>
</svg>
