<svg width="22" height="20" viewBox="0 0 22 20" fill="none" xmlns="http://www.w3.org/2000/svg">
<path d="M20.4286 0H1.57143C1.15466 0 0.754961 0.210714 0.460261 0.585786C0.165561 0.960859 0 1.46957 0 2V18C0 18.5304 0.165561 19.0391 0.460261 19.4142C0.754961 19.7893 1.15466 20 1.57143 20H20.4286C20.8453 20 21.245 19.7893 21.5397 19.4142C21.8344 19.0391 22 18.5304 22 18V2C22 1.46957 21.8344 0.960859 21.5397 0.585786C21.245 0.210714 20.8453 0 20.4286 0ZM20.4286 6L11 12L1.57143 6V2L11 8L20.4286 2V6Z" fill="#42A5F5"/>
</svg>
