<svg width="23" height="23" viewBox="0 0 23 23" fill="none" xmlns="http://www.w3.org/2000/svg">
<g clip-path="url(#clip0_829_35235)">
<path d="M8.01209 0.756519C5.71404 1.55374 3.7322 3.06688 2.35767 5.07369C0.983149 7.08051 0.288393 9.47521 0.375453 11.9061C0.462513 14.3369 1.3268 16.6758 2.84137 18.5791C4.35593 20.4825 6.44094 21.85 8.79014 22.4807C10.6947 22.9722 12.6901 22.9938 14.6048 22.5436C16.3394 22.154 17.943 21.3206 19.2587 20.125C20.6281 18.8427 21.6221 17.2114 22.1337 15.4064C22.6899 13.4437 22.7889 11.3795 22.423 9.37253H11.728V13.809H17.9219C17.7981 14.5166 17.5328 15.1919 17.1419 15.7946C16.7511 16.3973 16.2426 16.9149 15.647 17.3165C14.8907 17.8168 14.0381 18.1535 13.144 18.3048C12.2472 18.4715 11.3274 18.4715 10.4307 18.3048C9.52181 18.1169 8.66202 17.7418 7.90608 17.2033C6.69166 16.3437 5.7798 15.1224 5.30061 13.7138C4.81332 12.2788 4.81332 10.7231 5.30061 9.28808C5.64171 8.28222 6.20558 7.36639 6.95014 6.60894C7.8022 5.72622 8.88094 5.09525 10.068 4.78525C11.2551 4.47525 12.5046 4.49821 13.6794 4.8516C14.5972 5.13333 15.4365 5.62558 16.1304 6.2891C16.8288 5.59431 17.526 4.89772 18.2219 4.19933C18.5813 3.82378 18.973 3.46621 19.327 3.08168C18.2679 2.09605 17.0246 1.32911 15.6686 0.8248C13.1991 -0.0718585 10.4971 -0.0959554 8.01209 0.756519Z" fill="white"/>
<path d="M8.01242 0.756416C10.4973 -0.0966381 13.1993 -0.0731755 15.6689 0.8229C17.0252 1.33063 18.2679 2.10127 19.3255 3.09056C18.9662 3.47509 18.587 3.83446 18.2205 4.20821C17.5233 4.9042 16.8267 5.5978 16.1307 6.28899C15.4368 5.62547 14.5976 5.13323 13.6798 4.85149C12.5053 4.49686 11.2558 4.47258 10.0684 4.78131C8.88107 5.09004 7.80167 5.71985 6.94867 6.60165C6.20411 7.3591 5.64023 8.27493 5.29914 9.28079L1.57422 6.39681C2.90751 3.75281 5.21603 1.73037 8.01242 0.756416Z" fill="#E33629"/>
<path d="M0.586089 9.254C0.786299 8.26176 1.11869 7.30085 1.57437 6.39697L5.29929 9.28814C4.81201 10.7231 4.81201 12.2789 5.29929 13.7138C4.05825 14.6722 2.81661 15.6353 1.57437 16.6032C0.433625 14.3325 0.0857176 11.7454 0.586089 9.254Z" fill="#F8BD00"/>
<path d="M11.7283 9.37061H22.4233C22.7892 11.3776 22.6902 13.4417 22.134 15.4045C21.6224 17.2094 20.6284 18.8408 19.259 20.1231C18.0569 19.1851 16.8494 18.2544 15.6473 17.3164C16.2433 16.9144 16.752 16.3962 17.1429 15.7929C17.5338 15.1896 17.7988 14.5135 17.9222 13.8053H11.7283C11.7265 12.3283 11.7283 10.8494 11.7283 9.37061Z" fill="#587DBD"/>
<path d="M1.57227 16.6032C2.81451 15.6449 4.05615 14.6818 5.29719 13.7139C5.77733 15.123 6.69049 16.3443 7.90625 17.2034C8.66455 17.7393 9.52619 18.1114 10.4363 18.2959C11.333 18.4626 12.2528 18.4626 13.1495 18.2959C14.0436 18.1446 14.8962 17.8079 15.6526 17.3076C16.8547 18.2456 18.0622 19.1764 19.2643 20.1143C17.9488 21.3106 16.3451 22.1446 14.6104 22.5347C12.6957 22.9849 10.7003 22.9633 8.7957 22.4718C7.28939 22.0696 5.88239 21.3606 4.66289 20.3893C3.37213 19.3645 2.31789 18.073 1.57227 16.6032Z" fill="#319F43"/>
</g>
<defs>
<clipPath id="clip0_829_35235">
<rect width="23" height="23" fill="white"/>
</clipPath>
</defs>
</svg>
