<svg width="4" height="14" viewBox="0 0 4 14" fill="none" xmlns="http://www.w3.org/2000/svg">
<path d="M3.888 4.7539L0.223927 5.19573L0.0927253 5.78074L0.812739 5.90851C1.28315 6.01627 1.37595 6.17946 1.27355 6.63053L0.0927253 11.9694C-0.217681 13.3503 0.260729 14 1.38555 14C2.25757 14 3.27039 13.6121 3.7296 13.0794L3.8704 12.439C3.55039 12.7099 3.08318 12.8177 2.77278 12.8177C2.33277 12.8177 2.17276 12.5206 2.28637 11.9971L3.888 4.7539ZM4 1.53948C4 1.94777 3.83143 2.33934 3.53136 2.62805C3.2313 2.91676 2.82432 3.07895 2.39997 3.07895C1.97561 3.07895 1.56864 2.91676 1.26858 2.62805C0.968513 2.33934 0.799939 1.94777 0.799939 1.53948C0.799939 1.13118 0.968513 0.73961 1.26858 0.450902C1.56864 0.162194 1.97561 0 2.39997 0C2.82432 0 3.2313 0.162194 3.53136 0.450902C3.83143 0.73961 4 1.13118 4 1.53948Z" fill="currentColor"/>
</svg>
