<svg width="24" height="25" viewBox="0 0 24 25" fill="none" xmlns="http://www.w3.org/2000/svg">
<path d="M15.0137 5.14355V9.88883L16.6737 10.9328C16.7337 10.9457 16.7957 10.9457 16.8556 10.9328L23.993 6.12085C23.9878 5.88731 23.9024 5.66269 23.7511 5.48472C23.5998 5.30674 23.3918 5.18628 23.1622 5.14355H15.0137Z" fill="#0072C6"/>
<path d="M15.0156 11.6589L16.5292 12.6986C16.6 12.7419 16.6814 12.7648 16.7644 12.7648C16.8474 12.7648 16.9288 12.7419 16.9996 12.6986C16.7397 12.8554 23.9941 8.03906 23.9941 8.03906V16.7602C24.013 16.937 23.9931 17.1157 23.9357 17.2839C23.8783 17.4521 23.7849 17.6058 23.6619 17.7341C23.539 17.8624 23.3894 17.9623 23.2238 18.0268C23.0582 18.0913 22.8805 18.1189 22.7031 18.1075H15.0147L15.0156 11.6589ZM7.17985 9.47122C6.92838 9.4701 6.68128 9.53699 6.46471 9.6648C6.24813 9.79261 6.07014 9.97659 5.94956 10.1973C5.62038 10.7824 5.46246 11.4483 5.49383 12.1189C5.45963 12.7882 5.61777 13.4532 5.94956 14.0354C6.06956 14.2471 6.24316 14.4234 6.4529 14.5467C6.66265 14.67 6.90115 14.736 7.14445 14.7379C7.38775 14.7398 7.62728 14.6777 7.83895 14.5577C8.05063 14.4378 8.22701 14.2642 8.35035 14.0545C8.67917 13.4752 8.83408 12.8134 8.79655 12.1484C8.83409 11.4625 8.68434 10.7794 8.36335 10.1721C8.24833 9.95885 8.07739 9.78091 7.86888 9.65742C7.66037 9.53393 7.42217 9.46956 7.17985 9.47122Z" fill="#0072C6"/>
<path d="M0 2.73349V21.2978L14.1223 24.2592V0L0 2.73349ZM9.45069 15.1542C9.18656 15.5267 8.8353 15.8289 8.42755 16.0344C8.0198 16.24 7.56794 16.3426 7.11141 16.3334C6.66638 16.3413 6.22603 16.2416 5.8278 16.0428C5.42957 15.844 5.08524 15.5519 4.82412 15.1915C4.20486 14.3268 3.89506 13.2786 3.94472 12.2162C3.89216 11.1018 4.20756 10.0009 4.84231 9.08334C5.10999 8.70396 5.46681 8.39618 5.88136 8.18709C6.29592 7.978 6.75552 7.874 7.21971 7.88424C7.66147 7.87568 8.09859 7.97553 8.49281 8.17506C8.88703 8.37458 9.22633 8.6677 9.48102 9.02875C10.0941 9.91219 10.3986 10.9732 10.3474 12.0473C10.4016 13.1537 10.0862 14.2468 9.45069 15.1542Z" fill="#0072C6"/>
</svg>
