<svg width="17" height="17" viewBox="0 0 17 17" fill="none" xmlns="http://www.w3.org/2000/svg">
<g clip-path="url(#clip0_1629_25042)">
<path fill-rule="evenodd" clip-rule="evenodd" d="M2.22611 4.27019H14.9731L13.3753 1.96981H3.824L2.22611 4.27019ZM8.88871 11.7255C8.73753 11.8925 8.48136 11.9012 8.30994 11.7255L6.31934 9.82354C5.95184 9.47214 6.48949 8.91868 6.85699 9.26946L8.21126 10.5634L8.21063 7.001C8.21063 6.49335 8.98802 6.49335 8.98802 7.001V10.5627L10.3423 9.26882C10.7098 8.91804 11.2474 9.4715 10.8799 9.8229L8.88871 11.7255ZM16.0123 4.41204C16.0674 4.47855 16.0996 4.56326 16.0996 4.65613V13.8139C16.0996 14.0267 15.9257 14.1992 15.7112 14.1992H1.48798C1.27355 14.1992 1.09961 14.0267 1.09961 13.8139V4.65613L1.1869 4.41204L3.30267 1.36613C3.37794 1.2582 3.49875 1.20047 3.62148 1.20047V1.19922H13.5782C13.7224 1.19922 13.8483 1.27703 13.9153 1.39249L16.0123 4.41204ZM15.3229 5.04143H1.87638V13.428H15.3229V5.04143Z" fill="#528DB5" stroke="#528DB5" stroke-width="0.5"/>
</g>
<defs>
<clipPath id="clip0_1629_25042">
<rect width="16.1995" height="16.1995" fill="white"/>
</clipPath>
</defs>
</svg>
