<svg width="18" height="18" viewBox="0 0 18 18" fill="none" xmlns="http://www.w3.org/2000/svg">
<g clip-path="url(#clip0_1629_25044)">
<path d="M15.7496 2.99991H13.4246C13.2506 2.15349 12.79 1.39297 12.1206 0.846512C11.4512 0.300058 10.6139 0.00109086 9.74974 0L8.24979 0C7.38566 0.00109086 6.54833 0.300058 5.87892 0.846512C5.20952 1.39297 4.74897 2.15349 4.5749 2.99991H2.24998C2.05107 2.99991 1.86031 3.07892 1.71966 3.21957C1.57902 3.36022 1.5 3.55098 1.5 3.74988C1.5 3.94879 1.57902 4.13955 1.71966 4.2802C1.86031 4.42084 2.05107 4.49986 2.24998 4.49986H2.99995V14.2496C3.00114 15.2437 3.3966 16.1968 4.09958 16.8998C4.80256 17.6028 5.75567 17.9982 6.74984 17.9994H11.2497C12.2439 17.9982 13.197 17.6028 13.8999 16.8998C14.6029 16.1968 14.9984 15.2437 14.9996 14.2496V4.49986H15.7496C15.9485 4.49986 16.1392 4.42084 16.2799 4.2802C16.4205 4.13955 16.4995 3.94879 16.4995 3.74988C16.4995 3.55098 16.4205 3.36022 16.2799 3.21957C16.1392 3.07892 15.9485 2.99991 15.7496 2.99991ZM8.24979 1.49995H9.74974C10.2149 1.50052 10.6686 1.64498 11.0484 1.91352C11.4283 2.18206 11.7157 2.56154 11.8714 2.99991H6.1281C6.28379 2.56154 6.57127 2.18206 6.95112 1.91352C7.33097 1.64498 7.7846 1.50052 8.24979 1.49995ZM13.4996 14.2496C13.4996 14.8463 13.2626 15.4185 12.8406 15.8405C12.4187 16.2624 11.8464 16.4995 11.2497 16.4995H6.74984C6.15312 16.4995 5.58084 16.2624 5.15889 15.8405C4.73695 15.4185 4.49991 14.8463 4.49991 14.2496V4.49986H13.4996V14.2496Z" fill="#528DB5"/>
<path d="M7.49998 13.4998C7.69888 13.4998 7.88964 13.4208 8.03029 13.2801C8.17094 13.1395 8.24995 12.9487 8.24995 12.7498V8.24998C8.24995 8.05107 8.17094 7.86031 8.03029 7.71966C7.88964 7.57902 7.69888 7.5 7.49998 7.5C7.30107 7.5 7.11031 7.57902 6.96966 7.71966C6.82902 7.86031 6.75 8.05107 6.75 8.24998V12.7498C6.75 12.9487 6.82902 13.1395 6.96966 13.2801C7.11031 13.4208 7.30107 13.4998 7.49998 13.4998Z" fill="#528DB5"/>
<path d="M10.5 13.4998C10.6989 13.4998 10.8896 13.4208 11.0303 13.2801C11.1709 13.1395 11.25 12.9487 11.25 12.7498V8.24998C11.25 8.05107 11.1709 7.86031 11.0303 7.71966C10.8896 7.57902 10.6989 7.5 10.5 7.5C10.3011 7.5 10.1103 7.57902 9.96966 7.71966C9.82902 7.86031 9.75 8.05107 9.75 8.24998V12.7498C9.75 12.9487 9.82902 13.1395 9.96966 13.2801C10.1103 13.4208 10.3011 13.4998 10.5 13.4998Z" fill="#528DB5"/>
</g>
<defs>
<clipPath id="clip0_1629_25044">
<rect width="17.9994" height="17.9994" fill="white"/>
</clipPath>
</defs>
</svg>
