<svg width="17" height="17" viewBox="0 0 17 17" fill="none" xmlns="http://www.w3.org/2000/svg">
<path d="M4.9325 4.54345L4.34335 3.95428M7.39995 15.0785L1.31842 8.99682C1.01009 8.68848 0.835093 8.27181 0.82926 7.83681L0.750095 1.59593C0.748409 1.48439 0.769135 1.37365 0.811044 1.27026C0.852954 1.16688 0.915193 1.07296 0.994072 0.994079C1.07295 0.915198 1.16687 0.852957 1.27025 0.811046C1.37363 0.769136 1.48437 0.748409 1.59591 0.750095L7.83661 0.829262C8.27235 0.834397 8.68874 1.00999 8.99658 1.31843L15.0781 7.40014C15.6398 7.96098 16.0714 9.03265 15.4314 9.67266L9.67324 15.431C9.03242 16.0719 7.96077 15.6394 7.39995 15.0785Z" stroke="#528DB5" stroke-width="1.5" stroke-linecap="round" stroke-linejoin="round"/>
</svg>
