<svg width="17" height="17" viewBox="0 0 17 17" fill="none" xmlns="http://www.w3.org/2000/svg">
<path d="M11.9497 0.250016H4.53502C3.85177 0.250652 3.19711 0.522684 2.71415 1.00572C2.23118 1.48875 1.95908 2.14341 1.95844 2.82659V8.68981H1.74172C0.918636 8.69045 0.251269 9.35781 0.25 10.1815V13.6734C0.251271 14.3567 0.522668 15.0113 1.0057 15.4943C1.48874 15.9773 2.1434 16.2487 2.82658 16.25H13.6594C14.3427 16.2487 14.9973 15.9773 15.4803 15.4943C15.9633 15.0113 16.2347 14.3566 16.2354 13.6734V10.1815C16.2347 9.35781 15.5674 8.69044 14.7443 8.68981H14.5275L14.5269 2.82659C14.5263 2.14335 14.2549 1.48805 13.7712 1.00507C13.2882 0.522017 12.6329 0.250651 11.9497 0.250016ZM2.77191 2.82667C2.77318 1.85359 3.56194 1.06486 4.53502 1.06356H11.9497C12.9221 1.06483 13.7108 1.85359 13.7121 2.82667V8.68989H11.1742C10.7102 8.69053 10.334 9.06616 10.3333 9.53014V9.93118C10.3327 10.6303 9.76574 11.1966 9.0666 11.1979H7.41721C6.71807 11.1966 6.15178 10.6303 6.15114 9.93118V9.53014C6.15051 9.06616 5.77425 8.69053 5.31026 8.68989H2.77168L2.77191 2.82667ZM15.4219 10.1816V13.6735C15.4212 14.6466 14.6325 15.4353 13.6594 15.4366H2.82528C1.85219 15.4353 1.06346 14.6466 1.06281 13.6735V10.1816C1.06281 9.80725 1.36599 9.50407 1.74035 9.50344L5.33703 9.53013L5.33767 9.93118C5.33894 11.0797 6.26943 12.0101 7.41725 12.0114H9.06663C10.2151 12.0101 11.1456 11.0796 11.1469 9.93118V9.53013L14.7435 9.50344H14.7442C15.1185 9.50407 15.4219 9.80725 15.4219 10.1816Z" fill="#528DB5" stroke="#528DB5" stroke-width="0.5"/>
<path d="M11.9387 3.87259C11.9387 3.6476 11.7563 3.46582 11.532 3.46582H4.95365C4.72929 3.46582 4.54688 3.6476 4.54688 3.87259C4.54688 4.09695 4.72929 4.27937 4.95365 4.27937H11.532C11.7563 4.27937 11.9387 4.09695 11.9387 3.87259Z" fill="#528DB5" stroke="#528DB5" stroke-width="0.5"/>
<path d="M10.3359 6.13477H6.14994C5.92558 6.13477 5.74316 6.31718 5.74316 6.54154C5.74316 6.7659 5.92558 6.94831 6.14994 6.94831H10.3359C10.5603 6.94831 10.7427 6.7659 10.7427 6.54154C10.7427 6.31718 10.5603 6.13477 10.3359 6.13477Z" fill="#528DB5" stroke="#528DB5" stroke-width="0.5"/>
</svg>
