<svg width="15" height="17" viewBox="0 0 15 17" fill="none" xmlns="http://www.w3.org/2000/svg">
<path d="M10.85 3.55706L7.35 0.290391C7.25 0.197057 7.15 0.150391 7 0.150391H2C1.45 0.150391 1 0.570391 1 1.08372V12.2837C1 12.7971 1.45 13.2171 2 13.2171H10C10.55 13.2171 11 12.7971 11 12.2837V3.88372C11 3.74372 10.95 3.65039 10.85 3.55706ZM7 1.27039L9.8 3.88372H7V1.27039ZM10 12.2837H2V1.08372H6V3.88372C6 4.39706 6.45 4.81706 7 4.81706H10V12.2837Z" fill="#528DB5" stroke="#528DB5" stroke-width="0.3"/>
<path d="M3 9.48359H9V10.4169H3V9.48359ZM3 6.68359H9V7.61693H3V6.68359Z" fill="#528DB5" stroke="#528DB5" stroke-width="0.3"/>
<ellipse cx="10" cy="12.2841" rx="4" ry="3.73333" fill="white"/>
<path d="M12 12.5503H10.2857V14.1503H9.71429V12.5503H8V12.017H9.71429V10.417H10.2857V12.017H12V12.5503Z" fill="#528DB5" stroke="#528DB5" stroke-width="0.5"/>
</svg>
