<svg width="13" height="17" viewBox="0 0 13 17" fill="none" xmlns="http://www.w3.org/2000/svg">
<path d="M0 14.45V12.75H1.625V6.8C1.625 5.62417 1.96354 4.57937 2.64063 3.66562C3.31771 2.75187 4.19792 2.15333 5.28125 1.87V1.275C5.28125 0.920833 5.39974 0.619792 5.63672 0.371875C5.8737 0.123958 6.16146 0 6.5 0C6.83854 0 7.1263 0.123958 7.36328 0.371875C7.60026 0.619792 7.71875 0.920833 7.71875 1.275V1.87C8.80208 2.15333 9.68229 2.75187 10.3594 3.66562C11.0365 4.57937 11.375 5.62417 11.375 6.8V12.75H13V14.45H0ZM6.5 17C6.05312 17 5.67057 16.8335 5.35234 16.5006C5.03411 16.1677 4.875 15.7675 4.875 15.3H8.125C8.125 15.7675 7.96589 16.1677 7.64766 16.5006C7.32943 16.8335 6.94688 17 6.5 17ZM3.25 12.75H9.75V6.8C9.75 5.865 9.43177 5.06458 8.79531 4.39875C8.15885 3.73292 7.39375 3.4 6.5 3.4C5.60625 3.4 4.84115 3.73292 4.20469 4.39875C3.56823 5.06458 3.25 5.865 3.25 6.8V12.75Z" fill="#528DB5"/>
</svg>
