<svg width="14" height="14" viewBox="0 0 14 14" fill="none" xmlns="http://www.w3.org/2000/svg">
<path d="M4.07254 4.48743C4.07254 4.37739 4.11625 4.27186 4.19406 4.19406C4.27186 4.11625 4.37739 4.07254 4.48743 4.07254H8.91296C9.023 4.07254 9.12853 4.11625 9.20634 4.19406C9.28414 4.27186 9.32785 4.37739 9.32785 4.48743C9.32785 4.59747 9.28414 4.70299 9.20634 4.7808C9.12853 4.85861 9.023 4.90232 8.91296 4.90232H4.48743C4.37739 4.90232 4.27186 4.85861 4.19406 4.7808C4.11625 4.70299 4.07254 4.59747 4.07254 4.48743ZM4.48743 7.11509H8.91296C9.023 7.11509 9.12853 7.07138 9.20634 6.99357C9.28414 6.91576 9.32785 6.81023 9.32785 6.70019C9.32785 6.59016 9.28414 6.48463 9.20634 6.40682C9.12853 6.32901 9.023 6.2853 8.91296 6.2853H4.48743C4.37739 6.2853 4.27186 6.32901 4.19406 6.40682C4.11625 6.48463 4.07254 6.59016 4.07254 6.70019C4.07254 6.81023 4.11625 6.91576 4.19406 6.99357C4.27186 7.07138 4.37739 7.11509 4.48743 7.11509ZM6.70019 8.49807H4.48743C4.37739 8.49807 4.27186 8.54178 4.19406 8.61959C4.11625 8.69739 4.07254 8.80292 4.07254 8.91296C4.07254 9.023 4.11625 9.12853 4.19406 9.20634C4.27186 9.28414 4.37739 9.32785 4.48743 9.32785H6.70019C6.81023 9.32785 6.91576 9.28414 6.99357 9.20634C7.07138 9.12853 7.11509 9.023 7.11509 8.91296C7.11509 8.80292 7.07138 8.69739 6.99357 8.61959C6.91576 8.54178 6.81023 8.49807 6.70019 8.49807ZM13.2002 1.16828V8.68408C13.2004 8.81124 13.1755 8.9372 13.1268 9.05469C13.0782 9.17218 13.0068 9.27889 12.9167 9.36865L9.36865 12.9167C9.27889 13.0068 9.17218 13.0782 9.05469 13.1268C8.9372 13.1755 8.81124 13.2004 8.68408 13.2002H1.16828C0.911528 13.2002 0.665292 13.0982 0.483741 12.9166C0.30219 12.7351 0.200195 12.4889 0.200195 12.2321V1.16828C0.200195 0.911528 0.30219 0.665292 0.483741 0.483741C0.665292 0.30219 0.911528 0.200195 1.16828 0.200195H12.2321C12.4889 0.200195 12.7351 0.30219 12.9166 0.483741C13.0982 0.665292 13.2002 0.911528 13.2002 1.16828ZM1.16828 12.3704H8.49807V8.91296C8.49807 8.80292 8.54178 8.69739 8.61959 8.61959C8.69739 8.54178 8.80292 8.49807 8.91296 8.49807H12.3704V1.16828C12.3704 1.1316 12.3558 1.09642 12.3299 1.07049C12.304 1.04455 12.2688 1.02998 12.2321 1.02998H1.16828C1.1316 1.02998 1.09642 1.04455 1.07049 1.07049C1.04455 1.09642 1.02998 1.1316 1.02998 1.16828V12.2321C1.02998 12.2688 1.04455 12.304 1.07049 12.3299C1.09642 12.3558 1.1316 12.3704 1.16828 12.3704ZM11.784 9.32785H9.32785V11.784L11.784 9.32785Z" fill="#528DB5" stroke="#528DB5" stroke-width="0.4"/>
</svg>
